<svg width="1092" height="1133" viewBox="0 0 1092 1133" fill="none" xmlns="http://www.w3.org/2000/svg">
<g opacity="0.2">
<path d="M449.331 171.349C426.631 195.133 400.031 212.881 372.721 242.345C323.067 295.592 350.731 288.846 414.572 291.686C465.596 293.039 516.654 291.143 567.437 286.008C604.677 283.168 654.332 282.812 702.922 282.812H787.689H872.456C900.83 282.812 952.612 279.262 980.632 275.358C990.917 275.358 993.4 270.743 991.981 265.773C991.792 262.813 990.801 259.96 989.114 257.521C987.427 255.082 985.108 253.148 982.406 251.929C973.156 247.324 839.708 145.564 831 140M537.644 146.5C534.414 146.684 531.383 148.122 529.197 150.509C527.011 152.896 525.843 156.043 525.94 159.28C525.845 160.894 526.074 162.511 526.615 164.034C527.156 165.558 527.996 166.958 529.088 168.15C530.18 169.342 531.5 170.302 532.969 170.973C534.439 171.645 536.029 172.014 537.644 172.059C540.874 171.875 543.905 170.437 546.091 168.05C548.277 165.663 549.446 162.516 549.348 159.28M796.556 162.475C796.556 166.429 798.125 170.221 800.919 173.017C803.712 175.813 807.502 177.383 811.453 177.383C815.403 177.383 819.193 175.813 821.986 173.017C824.78 170.221 826.348 166.429 826.348 162.475M735.511 152.784C736.894 154.235 738.55 155.398 740.382 156.208C742.215 157.018 744.19 157.458 746.193 157.504C750.175 157.32 753.927 155.582 756.645 152.663M471.674 201.167C469.671 201.213 467.698 201.654 465.865 202.464C464.032 203.274 462.377 204.438 460.993 205.888C459.61 207.339 458.526 209.047 457.802 210.917C457.079 212.787 456.731 214.782 456.779 216.786C456.678 220.905 458.172 224.905 460.948 227.948C463.724 230.99 467.566 232.841 471.674 233.115C475.751 232.841 479.559 230.977 482.278 227.924C484.997 224.87 486.411 220.872 486.216 216.786C486.313 212.797 484.846 208.929 482.128 206.009C479.41 203.09 475.657 201.351 471.674 201.167ZM580.559 206.137C576.78 206.706 573.33 208.613 570.836 211.512C568.343 214.41 566.972 218.108 566.972 221.933C566.972 225.758 568.343 229.457 570.836 232.356C573.33 235.254 576.78 237.161 580.559 237.73C584.339 237.161 587.789 235.254 590.282 232.356C592.776 229.457 594.148 225.758 594.148 221.933C594.148 218.108 592.776 214.41 590.282 211.512C587.789 208.613 584.339 206.706 580.559 206.137ZM738.745 206.137C736.185 205.923 733.619 206.486 731.385 207.754C729.15 209.021 727.349 210.935 726.217 213.243C725.086 215.551 724.676 218.147 725.042 220.692C725.408 223.236 726.533 225.611 728.268 227.507C730.004 229.402 732.27 230.729 734.771 231.315C737.273 231.9 739.893 231.717 742.288 230.789C744.684 229.861 746.745 228.232 748.2 226.114C749.656 223.995 750.44 221.487 750.449 218.916C750.546 215.679 749.378 212.532 747.192 210.146C745.006 207.759 741.975 206.321 738.745 206.137ZM854.723 213.236C850.49 213.236 846.43 214.919 843.437 217.915C840.444 220.911 838.762 224.974 838.762 229.211C838.762 233.447 840.444 237.51 843.437 240.505C846.43 243.501 850.49 245.184 854.723 245.184C858.956 245.184 863.016 243.501 866.009 240.505C869.002 237.51 870.682 233.447 870.682 229.211C870.682 224.974 869.002 220.911 866.009 217.915C863.016 214.919 858.956 213.236 854.723 213.236Z" stroke="url(#paint0_linear_260_2733)" stroke-width="4"/>
<path fill-rule="evenodd" clip-rule="evenodd" d="M902.609 270.744L921.406 276.424L796.561 676.485L778.118 670.805L902.609 270.744Z" stroke="#C8DEF3" stroke-width="4"/>
<path fill-rule="evenodd" clip-rule="evenodd" d="M823.868 251.22L843.375 254.77L767.12 666.546L747.613 662.996L823.868 251.22Z" stroke="#C8DEF3" stroke-width="4"/>
<path fill-rule="evenodd" clip-rule="evenodd" d="M496.852 260.803L516.005 256.898L601.836 666.544L582.684 670.803L496.852 260.803Z" stroke="#C8DEF3" stroke-width="4"/>
<path fill-rule="evenodd" clip-rule="evenodd" d="M430.176 252.638L411.024 257.963L528.066 660.154L547.219 654.829L430.176 252.638Z" stroke="#C8DEF3" stroke-width="4"/>
<path fill-rule="evenodd" clip-rule="evenodd" d="M795.847 650.925C779.329 651.066 762.845 652.49 746.547 655.185C711.08 656.959 677.386 655.185 642.628 655.185C620.608 655.646 598.581 654.816 576.659 652.699C555.733 650.215 546.866 645.245 533.743 652.699C527.094 658.816 521.885 666.332 518.492 674.708C504.978 700.94 495.076 728.882 489.054 757.773C485.153 773.037 472.385 793.271 475.932 800.371C484.089 815.635 514.591 804.275 538.709 805.695C576.304 807.47 627.022 805.695 652.559 805.695C692.991 805.695 732.361 803.921 772.794 803.921H853.304C857.915 803.921 864.654 806.76 864.299 795.401C858.759 774.246 852.13 753.394 844.437 732.925C839.472 720.501 835.216 708.786 830.96 697.427C818.191 659.089 824.93 651.99 795.492 647.375L795.847 650.925Z" stroke="#C8DEF3" stroke-width="4"/>
<path d="M657.526 609.394H671.004V671.161H657.526V609.394Z" stroke="#C8DEF3" stroke-width="4"/>
<path fill-rule="evenodd" clip-rule="evenodd" d="M660.006 312.983V410.248L619.573 364.1C628.411 343.753 642.337 326.028 660.006 312.629V312.983ZM660.006 421.962V492.958L602.548 427.642C604.56 408.32 609.091 389.345 616.026 371.2L660.006 421.962ZM660.006 504.672V601.937C653.601 596.261 647.779 589.958 642.626 583.123C611.441 541.772 596.887 490.217 601.839 438.646L660.006 504.672ZM667.454 327.182C677.315 345.024 686.195 363.393 694.054 382.205L667.454 412.378V327.182ZM696.891 390.014C703.92 406.96 709.266 424.557 712.852 442.55L667.454 494.378V423.382L696.891 390.014ZM714.271 451.78C721.124 478.932 720.487 507.436 712.43 534.255C704.373 561.073 689.196 585.201 668.518 604.067V504.672L714.271 451.78Z" stroke="#C8DEF3" stroke-width="4"/>
<path fill-rule="evenodd" clip-rule="evenodd" d="M552.191 867.107C547.344 865.761 542.19 866.038 537.516 867.896C532.841 869.755 528.902 873.092 526.299 877.4C519.301 889.563 513.024 902.128 507.502 915.029C503.6 922.484 496.507 934.908 489.768 946.977C483.164 958.34 477.472 970.21 472.744 982.475C468.133 996.674 468.133 1004.84 470.97 1009.1C477.354 1019.39 496.507 1009.1 501.473 1000.93C510.694 987.444 523.817 963.306 528.782 953.722C533.748 944.137 541.195 931.002 545.097 922.128C548.998 913.254 570.279 874.916 552.191 867.816V867.107Z" stroke="#C8DEF3" stroke-width="4"/>
<path fill-rule="evenodd" clip-rule="evenodd" d="M1021.42 874.563C1023.75 871.102 1025 867.023 1025 862.849C1025 858.674 1023.75 854.594 1021.42 851.134C1013.84 841.972 1005.66 833.315 996.949 825.22C991.984 819.895 984.181 810.667 976.732 801.793C969.868 793.335 962.4 785.385 954.388 778.008C944.102 770.199 937.363 768.069 933.107 768.779C923.531 770.909 926.368 789.367 930.624 795.402C934.88 801.437 954.388 823.8 960.418 830.9C966.447 838 974.604 847.229 980.988 853.264C987.372 859.298 1011.14 886.987 1022.13 874.563H1021.42Z" stroke="#C8DEF3" stroke-width="4"/>
<path fill-rule="evenodd" clip-rule="evenodd" d="M671.716 905.802C655.756 914.321 660.366 951.594 660.366 967.568C660.366 996.321 657.529 1024.36 660.366 1052.76C668.169 1102.46 687.321 1084.36 695.834 1040.69C707.277 1000.3 706.412 957.412 693.351 917.515C688.74 907.221 682.002 900.477 672.071 905.802H671.716Z" stroke="#C8DEF3" stroke-width="4"/>
<path fill-rule="evenodd" clip-rule="evenodd" d="M834.508 901.892C805.425 862.134 752.578 833.736 789.818 897.988C797.267 910.767 816.065 944.49 831.316 968.983C840.537 983.183 845.503 995.962 861.463 1004.48C877.424 1013 891.966 1004.48 873.877 970.758C862.152 947.83 849.003 925.659 834.508 904.377V901.892Z" stroke="#C8DEF3" stroke-width="4"/>
<path fill-rule="evenodd" clip-rule="evenodd" d="M352.156 816.699C318.462 845.098 296.118 894.085 352.156 856.812C362.797 849.712 391.881 830.543 411.742 815.634C423.801 806.405 435.151 801.435 440.471 786.526C445.791 771.617 437.633 759.547 409.613 777.651C389.933 789.518 370.984 802.557 352.866 816.699H352.156Z" stroke="#C8DEF3" stroke-width="4"/>
</g>
<g clip-path="url(#clip0_260_2733)">
<rect x="207" y="144.5" width="595" height="842" rx="41" fill="#F9FCFF"/>
<g opacity="0.1">
<path fill-rule="evenodd" clip-rule="evenodd" d="M583.156 -308.645H517.121C450.136 -308.645 469.614 -303.415 469.614 -228.765C467.728 -204.552 467.728 -180.229 469.614 -156.016C400.728 -84.6942 347.521 -10.0434 282.911 57.4749C252.506 89.3321 216.876 113.106 180.295 152.571C113.785 223.893 150.84 214.858 236.353 218.662C304.697 220.474 373.087 217.934 441.109 211.056C490.992 207.252 557.502 206.775 622.587 206.775H736.129H849.672C887.678 206.775 957.038 202.021 994.569 196.79C1008.35 196.79 1011.67 190.61 1009.77 183.953C1009.52 179.987 1008.19 176.166 1005.93 172.899C1003.67 169.632 1000.56 167.042 996.945 165.409C984.555 159.24 972.503 152.415 960.839 144.963C876.153 81.9562 798.007 10.5921 727.578 -68.0528C710.475 -85.6456 661.068 -134.619 632.564 -163.148C633.23 -176.453 633.23 -189.783 632.564 -203.088C632.564 -214.975 632.564 -253.965 632.564 -279.641C632.564 -305.317 632.563 -306.744 611.66 -308.17C601.849 -308.691 592.017 -308.691 582.206 -308.17L583.156 -308.645ZM401.203 24.1907C396.877 24.4365 392.817 26.3638 389.889 29.561C386.961 32.7582 385.396 36.9735 385.527 41.3087C385.399 43.4709 385.705 45.6364 386.43 47.6774C387.154 49.7184 388.28 51.5933 389.743 53.1899C391.205 54.7866 392.973 56.0719 394.942 56.9714C396.91 57.8709 399.04 58.3654 401.203 58.4253C405.53 58.1795 409.589 56.2537 412.518 53.0564C415.446 49.8592 417.011 45.644 416.88 41.3087C417.011 36.9735 415.446 32.7582 412.518 29.561C409.589 26.3638 405.53 24.4365 401.203 24.1907V24.1907ZM312.839 97.4151C310.156 97.4768 307.513 98.0671 305.058 99.152C302.603 100.237 300.385 101.796 298.533 103.739C296.68 105.682 295.227 107.97 294.258 110.475C293.29 112.979 292.824 115.651 292.887 118.336C292.752 123.854 294.753 129.211 298.472 133.287C302.19 137.362 307.337 139.842 312.839 140.208C318.301 139.841 323.401 137.344 327.043 133.255C330.685 129.165 332.578 123.809 332.317 118.336C332.447 112.993 330.482 107.812 326.841 103.901C323.201 99.9909 318.174 97.6621 312.839 97.4151V97.4151ZM458.687 104.073C453.625 104.834 449.003 107.388 445.663 111.271C442.323 115.154 440.487 120.107 440.487 125.23C440.487 130.354 442.323 135.308 445.663 139.191C449.003 143.074 453.625 145.628 458.687 146.39C463.749 145.628 468.371 143.074 471.71 139.191C475.05 135.308 476.888 130.354 476.888 125.23C476.888 120.107 475.05 115.154 471.71 111.271C468.371 107.388 463.749 104.834 458.687 104.073V104.073ZM670.57 104.073C667.141 103.786 663.705 104.539 660.712 106.238C657.718 107.936 655.306 110.498 653.79 113.59C652.275 116.682 651.726 120.159 652.216 123.567C652.706 126.976 654.212 130.157 656.538 132.696C658.863 135.235 661.898 137.012 665.248 137.796C668.598 138.581 672.108 138.336 675.317 137.093C678.526 135.85 681.286 133.667 683.236 130.83C685.186 127.993 686.235 124.633 686.247 121.189C686.378 116.854 684.813 112.639 681.884 109.441C678.956 106.244 674.897 104.318 670.57 104.073ZM825.918 113.581C820.249 113.581 814.81 115.836 810.801 119.848C806.792 123.861 804.54 129.304 804.54 134.979C804.54 140.653 806.792 146.095 810.801 150.107C814.81 154.12 820.249 156.374 825.918 156.374C831.588 156.374 837.026 154.12 841.036 150.107C845.045 146.095 847.296 140.653 847.296 134.979C847.296 129.304 845.045 123.861 841.036 119.848C837.026 115.836 831.588 113.581 825.918 113.581V113.581ZM767.959 24.1907C762.499 24.4378 757.352 26.8166 753.622 30.8162C749.893 34.8157 747.876 40.1184 748.006 45.5879C748.006 50.8843 750.108 55.9644 753.85 59.7095C757.592 63.4547 762.668 65.5573 767.959 65.5573C773.251 65.5573 778.327 63.4547 782.069 59.7095C785.811 55.9644 787.912 50.8843 787.912 45.5879C788.042 40.1184 786.026 34.8157 782.297 30.8162C778.567 26.8166 773.42 24.4378 767.959 24.1907V24.1907ZM680.546 -3.86255C677.8 -3.74047 675.106 -3.0767 672.616 -1.91088C670.126 -0.745065 667.89 0.899677 666.037 2.93128C664.183 4.96289 662.749 7.34096 661.815 9.92826C660.881 12.5156 660.465 15.2611 660.593 18.0092C660.53 20.6943 660.995 23.3662 661.964 25.871C662.933 28.3758 664.385 30.6654 666.238 32.6082C668.091 34.5511 670.309 36.1086 672.764 37.1935C675.219 38.2785 677.863 38.8687 680.546 38.9304C685.881 38.6834 690.906 36.3561 694.547 32.4457C698.188 28.5353 700.154 23.3526 700.024 18.0092C700.217 15.285 699.863 12.5509 698.982 9.96599C698.101 7.38107 696.712 4.99906 694.897 2.9603C693.081 0.92155 690.876 -0.733393 688.412 -1.90508C685.947 -3.07676 683.272 -3.74236 680.546 -3.86255V-3.86255ZM501.919 -102.762C500.256 -102.763 498.61 -102.429 497.079 -101.778C495.549 -101.127 494.166 -100.173 493.012 -98.9747C491.859 -97.7759 490.959 -96.3567 490.367 -94.8015C489.774 -93.2463 489.502 -91.5875 489.566 -89.9245C489.21 -88.1316 489.256 -86.281 489.7 -84.5077C490.143 -82.7344 490.974 -81.083 492.132 -79.6699C493.291 -78.2567 494.748 -77.117 496.399 -76.3354C498.05 -75.5537 499.854 -75.1484 501.681 -75.1484C503.507 -75.1484 505.311 -75.5537 506.962 -76.3354C508.614 -77.117 510.071 -78.2567 511.229 -79.6699C512.388 -81.083 513.22 -82.7344 513.663 -84.5077C514.107 -86.281 514.152 -88.1316 513.795 -89.9245C513.859 -91.5482 513.603 -93.1683 513.04 -94.6926C512.477 -96.2169 511.619 -97.6155 510.516 -98.8078C509.413 -100 508.087 -100.963 506.612 -101.642C505.136 -102.32 503.541 -102.701 501.919 -102.762V-102.762ZM644.44 -95.63C641.885 -95.7248 639.361 -95.0534 637.19 -93.7016C635.019 -92.3498 633.3 -90.3798 632.256 -88.0439C631.212 -85.708 630.89 -83.1121 631.33 -80.5913C631.77 -78.0705 632.953 -75.7394 634.727 -73.8961C636.5 -72.0529 638.782 -70.7819 641.283 -70.2468C643.783 -69.7116 646.386 -69.9363 648.758 -70.8925C651.129 -71.8486 653.162 -73.4925 654.593 -75.6127C656.025 -77.733 656.791 -80.2336 656.793 -82.7926C656.857 -84.4556 656.584 -86.1143 655.992 -87.6695C655.4 -89.2247 654.5 -90.644 653.347 -91.8428C652.193 -93.0416 650.81 -93.9954 649.28 -94.6462C647.749 -95.297 646.103 -95.6312 644.44 -95.63V-95.63ZM539.925 -31.9157C540.255 -40.4844 543.121 -48.7619 548.16 -55.697C553.199 -62.6322 560.184 -67.9128 568.227 -70.8678C576.27 -73.8228 585.008 -74.3192 593.333 -72.2942C601.659 -70.2691 609.195 -65.8129 614.986 -59.493C623.357 -48.4583 628.975 -35.5828 631.372 -21.9369C633.768 -8.29089 632.874 5.73074 628.764 18.9611C614.972 54.1343 596.43 87.2507 573.655 117.386C562.728 55.098 517.597 55.0977 486.242 29.4217C442.535 -5.76389 463.439 -65.6749 539.925 -31.9157V-31.9157Z" stroke="#C78821" stroke-width="4"/>
<path fill-rule="evenodd" clip-rule="evenodd" d="M890.063 188.611L915.242 196.219L748.017 732.085L723.313 724.478L890.063 188.611Z" stroke="#C78821" stroke-width="4"/>
<path fill-rule="evenodd" clip-rule="evenodd" d="M784.594 164.46L810.723 169.214L708.582 720.772L682.453 716.017L784.594 164.46Z" stroke="#C78821" stroke-width="4"/>
<path fill-rule="evenodd" clip-rule="evenodd" d="M346.566 177.295L372.22 172.065L487.188 720.77L461.534 726.475L346.566 177.295Z" stroke="#C78821" stroke-width="4"/>
<path fill-rule="evenodd" clip-rule="evenodd" d="M257.257 166.359L231.603 173.491L388.377 712.211L414.031 705.079L257.257 166.359Z" stroke="#C78821" stroke-width="4"/>
<path fill-rule="evenodd" clip-rule="evenodd" d="M747.059 699.849C724.933 700.038 702.854 701.945 681.023 705.554C633.516 707.932 588.384 705.554 541.827 705.554C512.333 706.172 482.829 705.06 453.465 702.226C425.435 698.897 413.557 692.241 395.98 702.226C387.074 710.418 380.097 720.487 375.552 731.705C357.451 766.841 344.187 804.269 336.122 842.968C330.896 863.413 313.793 890.516 318.544 900.026C329.471 920.472 370.326 905.256 402.631 907.158C452.989 909.535 520.924 907.158 555.129 907.158C609.288 907.158 662.021 904.781 716.18 904.781H824.02C830.196 904.781 839.223 908.584 838.748 893.368C831.327 865.033 822.447 837.102 812.144 809.685C805.493 793.043 799.792 777.352 794.091 762.137C776.988 710.785 786.014 701.275 746.583 695.094L747.059 699.849Z" stroke="#C78821" stroke-width="4"/>
<path d="M561.783 644.22H579.836V726.954H561.783V644.22Z" stroke="#C78821" stroke-width="4"/>
<path fill-rule="evenodd" clip-rule="evenodd" d="M565.104 247.189V377.472L510.945 315.658C522.784 288.404 541.436 264.661 565.104 246.714V247.189ZM565.104 393.162V488.258L488.141 400.77C490.836 374.889 496.905 349.472 506.194 325.168L565.104 393.162ZM565.104 503.948V634.231C556.525 626.628 548.725 618.186 541.824 609.031C500.053 553.642 480.558 484.587 487.191 415.509L565.104 503.948ZM575.08 266.208C588.289 290.107 600.183 314.711 610.71 339.908L575.08 380.324V266.208ZM614.51 350.369C623.925 373.067 631.086 396.637 635.889 420.739L575.08 490.16V395.064L614.51 350.369ZM637.79 433.102C646.969 469.471 646.116 507.651 635.324 543.574C624.531 579.496 604.203 611.814 576.505 637.084V503.948L637.79 433.102Z" stroke="#C78821" stroke-width="4"/>
<path fill-rule="evenodd" clip-rule="evenodd" d="M420.692 989.416C414.2 987.613 407.297 987.985 401.036 990.474C394.774 992.964 389.498 997.434 386.011 1003.2C376.637 1019.5 368.23 1036.33 360.833 1053.61C355.607 1063.59 346.105 1080.23 337.079 1096.4C328.233 1111.62 320.609 1127.52 314.276 1143.95C308.1 1162.97 308.1 1173.9 311.9 1179.61C320.451 1193.4 346.106 1179.61 352.757 1168.67C365.109 1150.6 382.686 1118.27 389.337 1105.43C395.988 1092.6 405.964 1075 411.19 1063.12C416.416 1051.23 444.921 999.876 420.692 990.367V989.416Z" stroke="#C78821" stroke-width="4"/>
<path fill-rule="evenodd" clip-rule="evenodd" d="M798.841 1036.01C759.886 982.756 689.099 944.718 738.982 1030.78C748.958 1047.9 774.138 1093.07 794.566 1125.88C806.918 1144.9 813.569 1162.01 834.947 1173.42C856.326 1184.84 875.804 1173.42 851.575 1128.25C835.87 1097.54 818.257 1067.85 798.841 1039.34V1036.01Z" stroke="#C78821" stroke-width="4"/>
<path fill-rule="evenodd" clip-rule="evenodd" d="M152.752 921.897C107.62 959.936 77.6902 1025.55 152.752 975.627C167.004 966.117 205.961 940.441 232.565 920.471C248.717 908.108 263.92 901.451 271.046 881.481C278.172 861.511 267.244 845.345 229.713 869.594C203.352 885.489 177.97 902.955 153.703 921.897H152.752Z" stroke="#C78821" stroke-width="4"/>
</g>
<g clip-path="url(#clip1_260_2733)">
<path fill-rule="evenodd" clip-rule="evenodd" d="M479.599 408.794C497.39 408.685 515.149 407.275 532.735 404.576C547.788 402.843 540.261 432.673 538.756 439.679C537.175 448.417 537.401 475.008 525.509 479.075C517.606 480.68 509.489 480.934 501.5 479.829C493.98 479.169 486.41 479.321 478.921 480.281C469.589 481.862 472.072 478.774 468.911 470.262C462.008 454.013 456.592 437.171 452.73 419.943C451.601 412.41 450.547 409.548 459.353 408.644C466.021 408.278 472.705 408.278 479.373 408.644L479.599 408.794Z" fill="#F7B13F"/>
<path fill-rule="evenodd" clip-rule="evenodd" d="M455.138 521.334C456.84 521.513 458.416 522.316 459.561 523.589C460.707 524.861 461.341 526.514 461.341 528.227C461.341 529.94 460.707 531.592 459.561 532.865C458.416 534.138 456.84 534.941 455.138 535.119C454.173 535.22 453.197 535.118 452.275 534.817C451.352 534.517 450.503 534.026 449.782 533.376C449.061 532.726 448.485 531.932 448.091 531.045C447.696 530.158 447.492 529.198 447.492 528.227C447.492 527.256 447.696 526.296 448.091 525.409C448.485 524.522 449.061 523.728 449.782 523.078C450.503 522.428 451.352 521.937 452.275 521.636C453.197 521.336 454.173 521.233 455.138 521.334V521.334Z" fill="#F7B13F"/>
<path fill-rule="evenodd" clip-rule="evenodd" d="M525.132 568.113C526.178 568.113 527.199 568.425 528.067 569.007C528.935 569.59 529.61 570.418 530.007 571.386C530.403 572.354 530.503 573.418 530.293 574.443C530.084 575.468 529.575 576.407 528.83 577.141C528.086 577.876 527.14 578.372 526.113 578.567C525.086 578.762 524.025 578.646 523.064 578.236C522.102 577.825 521.285 577.138 520.715 576.261C520.145 575.384 519.849 574.357 519.864 573.311C519.864 572.622 520.001 571.94 520.266 571.304C520.532 570.669 520.921 570.092 521.411 569.609C521.902 569.125 522.483 568.744 523.122 568.487C523.761 568.23 524.444 568.103 525.132 568.113Z" fill="#F7B13F"/>
<path fill-rule="evenodd" clip-rule="evenodd" d="M504.512 323.975H514.973C525.586 323.975 522.5 324.803 522.5 336.63C522.799 340.466 522.799 344.319 522.5 348.155C533.413 359.454 541.842 371.281 552.078 381.977C556.895 387.024 562.54 390.791 568.335 397.043C578.872 408.342 573.002 406.911 559.454 407.513C548.627 407.8 537.792 407.398 527.016 406.308C519.113 405.706 508.576 405.63 498.265 405.63H480.277H462.289C456.268 405.63 445.28 404.877 439.334 404.048C437.151 404.048 436.624 403.069 436.925 402.015C436.965 401.386 437.176 400.781 437.534 400.263C437.892 399.746 438.384 399.335 438.957 399.077C440.92 398.099 442.83 397.018 444.677 395.838C458.094 385.856 470.474 374.55 481.632 362.091C484.341 359.303 492.169 351.545 496.685 347.025C496.579 344.917 496.579 342.805 496.685 340.697C496.685 338.814 496.685 332.637 496.685 328.57C496.685 324.502 496.685 324.276 499.996 324.05C501.55 323.967 503.108 323.967 504.662 324.05L504.512 323.975ZM533.338 376.704C534.023 376.743 534.666 377.048 535.13 377.555C535.594 378.061 535.842 378.729 535.821 379.416C535.842 379.759 535.793 380.102 535.678 380.425C535.564 380.748 535.385 381.045 535.153 381.298C534.922 381.551 534.642 381.755 534.33 381.897C534.018 382.04 533.68 382.118 533.338 382.128C532.652 382.089 532.009 381.784 531.545 381.277C531.081 380.771 530.833 380.103 530.854 379.416C530.833 378.729 531.081 378.061 531.545 377.555C532.009 377.048 532.652 376.743 533.338 376.704ZM547.337 388.305C547.762 388.315 548.181 388.408 548.57 388.58C548.959 388.752 549.31 388.999 549.603 389.307C549.897 389.614 550.127 389.977 550.281 390.374C550.434 390.771 550.508 391.194 550.498 391.619C550.519 392.493 550.202 393.342 549.613 393.988C549.024 394.633 548.209 395.026 547.337 395.084C546.472 395.026 545.664 394.631 545.087 393.983C544.51 393.335 544.21 392.486 544.251 391.619C544.23 390.773 544.542 389.952 545.119 389.332C545.695 388.713 546.492 388.344 547.337 388.305ZM524.231 389.359C525.033 389.48 525.765 389.885 526.294 390.5C526.823 391.115 527.114 391.9 527.114 392.711C527.114 393.523 526.823 394.308 526.294 394.923C525.765 395.538 525.033 395.943 524.231 396.064C523.429 395.943 522.697 395.538 522.168 394.923C521.639 394.308 521.347 393.523 521.347 392.711C521.347 391.9 521.639 391.115 522.168 390.5C522.697 389.885 523.429 389.48 524.231 389.359ZM490.663 389.359C491.207 389.314 491.751 389.433 492.225 389.702C492.699 389.971 493.082 390.377 493.322 390.867C493.562 391.357 493.649 391.908 493.571 392.448C493.494 392.988 493.255 393.492 492.886 393.894C492.518 394.296 492.037 394.578 491.506 394.702C490.976 394.826 490.42 394.788 489.911 394.591C489.403 394.394 488.966 394.048 488.657 393.599C488.348 393.149 488.182 392.617 488.18 392.071C488.159 391.384 488.407 390.717 488.871 390.21C489.335 389.704 489.978 389.398 490.663 389.359ZM466.052 390.866C466.951 390.866 467.812 391.223 468.447 391.859C469.082 392.494 469.439 393.357 469.439 394.256C469.439 395.155 469.082 396.017 468.447 396.653C467.812 397.288 466.951 397.645 466.052 397.645C465.154 397.645 464.292 397.288 463.657 396.653C463.022 396.017 462.666 395.155 462.666 394.256C462.666 393.357 463.022 392.494 463.657 391.859C464.292 391.223 465.154 390.866 466.052 390.866ZM475.234 376.704C476.1 376.743 476.915 377.12 477.506 377.754C478.097 378.387 478.416 379.228 478.396 380.094C478.396 380.933 478.063 381.738 477.47 382.331C476.877 382.925 476.073 383.258 475.234 383.258C474.396 383.258 473.592 382.925 472.999 382.331C472.406 381.738 472.073 380.933 472.073 380.094C472.053 379.228 472.372 378.387 472.963 377.754C473.554 377.12 474.369 376.743 475.234 376.704ZM489.083 372.26C489.518 372.279 489.945 372.384 490.339 372.569C490.734 372.754 491.088 373.014 491.382 373.336C491.675 373.658 491.902 374.035 492.05 374.445C492.198 374.855 492.264 375.29 492.244 375.725C492.254 376.15 492.18 376.574 492.027 376.97C491.873 377.367 491.643 377.73 491.35 378.038C491.056 378.346 490.705 378.592 490.316 378.764C489.927 378.936 489.508 379.03 489.083 379.039C488.238 379 487.442 378.631 486.865 378.012C486.288 377.392 485.976 376.571 485.997 375.725C485.966 375.293 486.023 374.86 486.162 374.451C486.302 374.041 486.522 373.664 486.809 373.341C487.097 373.018 487.446 372.756 487.837 372.57C488.227 372.384 488.651 372.279 489.083 372.26ZM517.382 356.592C517.645 356.592 517.906 356.644 518.149 356.748C518.391 356.851 518.61 357.002 518.793 357.192C518.976 357.382 519.118 357.606 519.212 357.853C519.306 358.099 519.349 358.362 519.339 358.625C519.395 358.91 519.388 359.203 519.318 359.484C519.247 359.765 519.116 360.026 518.932 360.25C518.749 360.474 518.518 360.654 518.256 360.778C517.995 360.902 517.709 360.966 517.42 360.966C517.13 360.966 516.844 360.902 516.583 360.778C516.321 360.654 516.09 360.474 515.907 360.25C515.723 360.026 515.592 359.765 515.521 359.484C515.451 359.203 515.444 358.91 515.5 358.625C515.49 358.368 515.531 358.112 515.62 357.87C515.709 357.629 515.845 357.407 516.02 357.218C516.195 357.029 516.405 356.877 516.638 356.769C516.872 356.662 517.125 356.601 517.382 356.592ZM494.803 357.722C495.208 357.707 495.608 357.813 495.952 358.027C496.296 358.241 496.568 358.553 496.733 358.923C496.899 359.293 496.95 359.705 496.88 360.104C496.81 360.503 496.623 360.873 496.342 361.165C496.061 361.457 495.699 361.658 495.303 361.743C494.907 361.828 494.495 361.792 494.119 361.641C493.743 361.489 493.421 361.229 493.194 360.893C492.968 360.557 492.846 360.161 492.846 359.755C492.836 359.492 492.879 359.229 492.973 358.983C493.067 358.736 493.209 358.511 493.392 358.322C493.575 358.132 493.794 357.981 494.036 357.877C494.279 357.774 494.54 357.721 494.803 357.722Z" fill="#473D3B"/>
<path fill-rule="evenodd" clip-rule="evenodd" d="M455.891 403.069L451.902 404.275L478.395 489.169L482.309 487.964L455.891 403.069Z" fill="#473D3B"/>
<path fill-rule="evenodd" clip-rule="evenodd" d="M472.6 398.926L468.461 399.68L484.643 487.06L488.782 486.307L472.6 398.926Z" fill="#473D3B"/>
<path fill-rule="evenodd" clip-rule="evenodd" d="M541.993 400.96L537.929 400.131L519.715 487.06L523.779 487.964L541.993 400.96Z" fill="#473D3B"/>
<path fill-rule="evenodd" clip-rule="evenodd" d="M556.142 399.228L560.206 400.357L535.369 485.704L531.305 484.574L556.142 399.228Z" fill="#473D3B"/>
<path fill-rule="evenodd" clip-rule="evenodd" d="M478.544 483.746C482.05 483.775 485.547 484.078 489.006 484.649C496.532 485.026 503.682 484.649 511.058 484.649C515.731 484.747 520.405 484.571 525.057 484.122C529.498 483.595 531.379 482.54 534.164 484.122C535.575 485.42 536.68 487.015 537.4 488.792C540.268 494.359 542.369 500.288 543.647 506.419C544.475 509.658 547.184 513.952 546.432 515.459C544.701 518.698 538.228 516.287 533.11 516.588C525.132 516.965 514.37 516.588 508.951 516.588C500.371 516.588 492.016 516.212 483.436 516.212H466.352C465.373 516.212 463.943 516.814 464.018 514.404C465.194 509.915 466.601 505.49 468.233 501.146C469.287 498.51 470.19 496.024 471.093 493.613C473.803 485.478 472.373 483.971 478.62 482.992L478.544 483.746Z" fill="#473D3B"/>
<path fill-rule="evenodd" clip-rule="evenodd" d="M507.973 -60.5C511.435 -46.715 515.499 -32.1012 519.789 -14.7758C524.801 4.61129 527.33 24.5573 527.315 44.5827C525.735 120.965 482.157 169.477 490.662 244.127C492.845 263.938 499.769 277.422 504.285 296.254C506.829 307.508 508.216 318.992 508.424 330.528L512.639 329.775C511.585 302.205 506.016 293.843 499.618 269.512C491.842 242.497 491.401 213.895 498.339 186.652C503.949 163.695 510.808 141.063 518.886 118.856C521.67 108.235 524.305 97.8397 526.789 87.3691C540.562 29.5171 527.993 -6.26374 510.155 -60.1233L507.973 -60.5Z" fill="#473D3B"/>
<path d="M507.899 474.932H505.039V488.039H507.899V474.932Z" fill="#473D3B"/>
<path fill-rule="evenodd" clip-rule="evenodd" d="M507.37 412.033V432.673L515.95 422.88C514.075 418.563 511.12 414.801 507.37 411.958V412.033ZM507.37 435.159V450.225L519.563 436.364C519.136 432.264 518.174 428.237 516.703 424.387L507.37 435.159ZM507.37 452.71V473.35C508.729 472.146 509.965 470.808 511.058 469.358C517.676 460.583 520.764 449.643 519.713 438.699L507.37 452.71ZM505.79 415.046C503.697 418.832 501.813 422.73 500.145 426.722L505.79 433.125V415.046ZM499.543 428.379C498.051 431.976 496.917 435.71 496.156 439.528L505.79 450.526V435.46L499.543 428.379ZM495.855 441.487C494.401 447.248 494.536 453.297 496.246 458.988C497.955 464.679 501.176 469.799 505.564 473.802V452.71L495.855 441.487Z" fill="#473D3B"/>
<path fill-rule="evenodd" clip-rule="evenodd" d="M530.252 529.621C531.28 529.335 532.374 529.394 533.366 529.788C534.358 530.183 535.194 530.891 535.746 531.805C537.231 534.386 538.563 537.052 539.735 539.79C540.563 541.372 542.068 544.008 543.498 546.569C544.9 548.981 546.108 551.5 547.111 554.102C548.089 557.115 548.089 558.848 547.487 559.752C546.133 561.936 542.068 559.752 541.015 558.019C539.058 555.157 536.273 550.035 535.219 548.001C534.166 545.967 532.585 543.18 531.757 541.296C530.929 539.413 526.413 531.278 530.252 529.771V529.621Z" fill="#473D3B"/>
<path fill-rule="evenodd" clip-rule="evenodd" d="M430.678 531.203C430.182 530.468 429.918 529.603 429.918 528.717C429.918 527.831 430.182 526.965 430.678 526.231C432.287 524.287 434.022 522.45 435.871 520.732C436.924 519.602 438.58 517.644 440.161 515.76C441.617 513.966 443.202 512.279 444.902 510.713C447.085 509.056 448.515 508.604 449.418 508.755C451.45 509.207 450.848 513.124 449.945 514.404C449.042 515.685 444.902 520.431 443.623 521.937C442.343 523.444 440.612 525.402 439.257 526.683C437.903 527.963 432.86 533.839 430.527 531.203H430.678Z" fill="#473D3B"/>
<path fill-rule="evenodd" clip-rule="evenodd" d="M504.888 537.831C508.275 539.639 507.296 547.548 507.296 550.938C507.296 557.04 507.898 562.991 507.296 569.017C505.64 579.563 501.576 575.721 499.77 566.456C497.342 557.884 497.525 548.783 500.297 540.317C501.275 538.132 502.705 536.701 504.812 537.831H504.888Z" fill="#473D3B"/>
<path fill-rule="evenodd" clip-rule="evenodd" d="M470.341 537.002C476.513 528.565 487.727 522.539 479.824 536.174C478.244 538.886 474.255 546.042 471.019 551.239C469.062 554.252 468.008 556.964 464.621 558.772C461.234 560.58 458.148 558.772 461.987 551.616C464.475 546.75 467.265 542.046 470.341 537.53V537.002Z" fill="#473D3B"/>
<path fill-rule="evenodd" clip-rule="evenodd" d="M572.698 518.924C579.848 524.95 584.59 535.346 572.698 527.436C570.44 525.93 564.268 521.862 560.054 518.698C557.495 516.739 555.086 515.685 553.957 512.521C552.828 509.357 554.56 506.796 560.505 510.638C564.682 513.156 568.703 515.923 572.547 518.924H572.698Z" fill="#473D3B"/>
<path fill-rule="evenodd" clip-rule="evenodd" d="M478.547 566.38C479.512 566.279 480.487 566.382 481.41 566.683C482.332 566.983 483.181 567.474 483.902 568.124C484.623 568.774 485.199 569.568 485.594 570.455C485.988 571.342 486.192 572.302 486.192 573.273C486.192 574.244 485.988 575.204 485.594 576.091C485.199 576.978 484.623 577.772 483.902 578.422C483.181 579.072 482.332 579.563 481.41 579.863C480.487 580.163 479.512 580.266 478.547 580.165C476.845 579.987 475.269 579.184 474.123 577.911C472.978 576.638 472.344 574.986 472.344 573.273C472.344 571.56 472.978 569.908 474.123 568.635C475.269 567.362 476.845 566.559 478.547 566.38V566.38Z" fill="#F7B13F"/>
<path fill-rule="evenodd" clip-rule="evenodd" d="M525.509 598.998C526.581 599.017 527.604 599.452 528.362 600.21C529.12 600.969 529.554 601.993 529.574 603.065C529.554 604.131 529.117 605.146 528.357 605.893C527.597 606.64 526.574 607.058 525.509 607.058C524.444 607.058 523.422 606.64 522.662 605.893C521.902 605.146 521.465 604.131 521.445 603.065C521.445 601.987 521.873 600.952 522.636 600.189C523.398 599.426 524.431 598.998 525.509 598.998V598.998Z" fill="#F7B13F"/>
<path fill-rule="evenodd" clip-rule="evenodd" d="M494.501 594.327C495.566 594.327 496.589 594.745 497.349 595.492C498.109 596.238 498.546 597.254 498.565 598.32C498.58 599.127 498.355 599.921 497.917 600.6C497.48 601.278 496.851 601.811 496.109 602.131C495.368 602.45 494.549 602.542 493.755 602.393C492.962 602.245 492.231 601.864 491.655 601.298C491.079 600.732 490.684 600.008 490.521 599.217C490.358 598.425 490.434 597.604 490.739 596.856C491.045 596.108 491.566 595.469 492.235 595.018C492.905 594.568 493.694 594.327 494.501 594.327V594.327Z" fill="#F7B13F"/>
<path fill-rule="evenodd" clip-rule="evenodd" d="M508.198 614.44C509.171 614.573 510.063 615.055 510.709 615.796C511.355 616.537 511.71 617.487 511.71 618.47C511.71 619.453 511.355 620.403 510.709 621.144C510.063 621.885 509.171 622.367 508.198 622.5C507.623 622.579 507.038 622.534 506.482 622.367C505.926 622.201 505.412 621.917 504.975 621.536C504.537 621.154 504.187 620.682 503.947 620.154C503.706 619.625 503.582 619.051 503.582 618.47C503.582 617.889 503.706 617.315 503.947 616.786C504.187 616.258 504.537 615.787 504.975 615.405C505.412 615.023 505.926 614.739 506.482 614.573C507.038 614.406 507.623 614.361 508.198 614.44V614.44Z" fill="#F7B13F"/>
</g>
<path d="M643 765.007C642.192 766.2 641.308 767.34 640.354 768.42C634.931 774.222 628.408 778.893 621.162 782.164C613.917 785.434 606.092 787.239 598.143 787.474C590.193 787.708 582.275 786.368 574.848 783.531C567.421 780.694 560.633 776.416 554.875 770.944C553.71 769.491 552.743 767.89 551.999 766.183C551.078 765.724 549.87 765.524 549.122 764.778C542.664 756.924 538.442 747.484 536.899 737.444C535.397 728.969 535.781 720.268 538.022 711.957C540.264 703.645 544.308 695.926 549.87 689.345C552.42 686.435 555.158 683.695 558.067 681.143C558.955 680.62 559.929 680.261 560.943 680.081C561.441 679.156 562.082 678.314 562.842 677.586C574.521 669.758 588.604 666.313 602.59 667.863C603.49 667.987 604.347 668.321 605.092 668.838C586.915 673.14 573.915 683.638 566.983 700.732C560.052 717.826 562.382 734.347 572.391 749.864L571.643 750.466C570.716 749.7 569.877 748.834 569.141 747.884C564.687 740.552 562.058 732.264 561.472 723.712C560.887 715.16 562.363 706.592 565.775 698.724C566.132 698.005 566.282 697.2 566.207 696.401C565.66 696.837 565.159 697.327 564.711 697.864C561.174 703.113 557.722 708.39 554.156 713.639C553.353 714.656 552.478 715.614 551.539 716.507C551.498 717.404 551.383 718.296 551.193 719.174C549.459 723.416 547.971 727.755 546.735 732.167C544.406 742.664 549.611 749.777 560.167 751.929C567.267 753.034 574.505 752.918 581.566 751.584C586.426 750.896 591.229 749.777 595.946 749.261C606.904 748.028 614.929 753.563 622.004 761.049C622.205 761.25 622.004 761.738 622.177 762.11C620.689 761.314 619.266 760.403 617.92 759.386C613.117 755.141 607.882 751.011 601.325 751.126C593.099 751.298 584.873 752.789 576.187 753.764L578.747 758.181C579.534 758.579 580.293 759.03 581.019 759.529C586.116 764.018 592.064 767.443 598.51 769.6C604.957 771.758 611.772 772.605 618.553 772.092C622.486 771.659 626.394 771.017 630.259 770.17L622.666 762.254C623.517 762.543 624.344 762.898 625.139 763.315C627.033 764.702 629.001 765.985 631.035 767.158C632.478 767.969 634.147 768.288 635.787 768.065C637.428 767.842 638.951 767.091 640.124 765.925C640.819 765.342 641.56 764.815 642.339 764.348L643 765.007Z" fill="#F7B13F"/>
<g clip-path="url(#clip2_260_2733)">
<path d="M396.241 708.021C397.751 708.105 399.227 708.491 400.584 709.154C401.941 709.818 403.15 710.745 404.14 711.883C405.13 713.02 405.88 714.344 406.346 715.775C406.812 717.207 406.985 718.716 406.854 720.216C407.091 722.29 406.742 724.389 405.847 726.277C404.953 728.165 403.547 729.768 401.789 730.906C400.031 732.044 397.989 732.672 395.892 732.719C393.796 732.766 391.727 732.231 389.919 731.174V744.212H383.088V716.619C383.088 714.371 383.371 712.91 380.887 713.078V708.526C384.104 707.852 388.677 707.796 388.677 712.292C389.374 710.917 390.464 709.777 391.81 709.017C393.156 708.257 394.698 707.911 396.241 708.021V708.021ZM389.975 725.498C390.912 726.269 392.057 726.747 393.267 726.871C394.476 726.995 395.695 726.759 396.77 726.194C397.845 725.629 398.727 724.76 399.307 723.696C399.886 722.632 400.135 721.421 400.024 720.216C400.101 719.473 400.03 718.722 399.812 718.007C399.595 717.292 399.237 716.627 398.759 716.051C398.28 715.476 397.691 715.001 397.027 714.654C396.362 714.308 395.634 714.097 394.887 714.034C394.207 714.048 393.537 714.198 392.918 714.477C392.298 714.756 391.742 715.157 391.283 715.657C390.824 716.156 390.471 716.742 390.246 717.381C390.022 718.02 389.929 718.697 389.975 719.373V725.498Z" fill="#473D3B"/>
<path d="M418.201 696.5V723.25C418.201 726.847 419.669 727.578 422.943 727.072V732.186C415.661 733.479 411.258 731.68 411.258 723.25V696.5H418.201Z" fill="#473D3B"/>
<path d="M433.895 732.636C432.85 732.712 431.799 732.582 430.804 732.253C429.808 731.924 428.888 731.402 428.096 730.718C427.304 730.034 426.656 729.201 426.188 728.267C425.72 727.332 425.443 726.315 425.371 725.274C425.371 719.654 429.266 716.788 434.516 716.788C436.704 716.722 438.869 717.246 440.782 718.305V716.956C440.782 714.09 437.226 713.584 435.137 713.584C432.772 713.474 430.418 713.977 428.307 715.045L427.46 710.156C430.234 708.949 433.239 708.354 436.266 708.414C442.363 708.414 447.557 710.381 447.557 717.181V725.611C447.557 727.634 447.557 728.814 449.758 728.645V732.467C446.145 733.254 442.25 733.029 442.25 728.87C441.331 730.192 440.068 731.241 438.596 731.904C437.125 732.567 435.5 732.82 433.895 732.636ZM440.782 722.576C439.309 721.667 437.604 721.198 435.871 721.227C433.726 721.227 431.976 722.576 432.202 724.88C432.314 725.641 432.718 726.329 433.328 726.8C433.938 727.272 434.708 727.49 435.476 727.409C437.678 727.409 440.557 726.285 440.782 723.812V722.576Z" fill="#473D3B"/>
<path d="M471.155 732.186V718.586C471.235 717.957 471.18 717.319 470.992 716.714C470.804 716.109 470.488 715.55 470.066 715.076C469.644 714.603 469.124 714.224 468.543 713.967C467.961 713.71 467.331 713.579 466.695 713.584C466.021 713.575 465.352 713.705 464.73 713.965C464.109 714.224 463.547 714.608 463.081 715.093C462.615 715.578 462.255 716.154 462.022 716.784C461.789 717.414 461.688 718.084 461.727 718.754V732.186H454.84V715.945C454.84 713.64 454.84 712.91 452.582 712.91V708.639C455.743 708.133 461.219 707.571 461.219 711.842C462.017 710.609 463.138 709.617 464.461 708.973C465.785 708.329 467.26 708.058 468.727 708.189C475.389 708.189 478.042 712.741 478.042 718.586V732.186H471.155Z" fill="#473D3B"/>
<path d="M505.531 721.845H489.555C489.555 725.498 492.547 726.903 495.821 727.184C496.855 727.24 497.891 727.24 498.926 727.184C500.86 726.957 502.757 726.485 504.571 725.779L505.361 730.725C502.493 732.048 499.377 732.756 496.216 732.804C494.466 733.001 492.694 732.817 491.022 732.267C489.35 731.717 487.817 730.812 486.53 729.616C485.242 728.42 484.23 726.96 483.564 725.337C482.897 723.714 482.591 721.967 482.668 720.216C482.618 718.594 482.908 716.98 483.519 715.476C484.13 713.972 485.049 712.611 486.217 711.48C487.385 710.348 488.777 709.472 490.304 708.905C491.831 708.339 493.46 708.095 495.087 708.189C503.668 708.133 507.337 713.865 505.531 721.845ZM489.611 717.462H499.942C499.942 714.371 497.627 713.303 495.087 713.303C493.824 713.223 492.575 713.6 491.568 714.364C490.562 715.128 489.867 716.228 489.611 717.462Z" fill="#473D3B"/>
<path d="M525.007 707.965C526.804 707.903 528.571 708.437 530.031 709.482L528.563 715.102C527.254 714.257 525.719 713.826 524.16 713.866C523.404 713.806 522.643 713.911 521.931 714.173C521.22 714.434 520.573 714.846 520.036 715.38C519.5 715.915 519.086 716.558 518.823 717.267C518.561 717.975 518.455 718.732 518.515 719.486V732.186H511.91V715.608C511.91 713.641 511.91 712.404 509.539 712.742V708.527C512.983 707.796 518.007 707.796 518.402 711.955C518.943 710.684 519.872 709.614 521.057 708.898C522.243 708.182 523.625 707.855 525.007 707.965V707.965Z" fill="#473D3B"/>
<path d="M417.241 739.885C419.038 739.824 420.805 740.358 422.265 741.403L420.797 747.022C419.488 746.178 417.953 745.747 416.394 745.786C415.637 745.727 414.877 745.832 414.165 746.093C413.453 746.355 412.807 746.767 412.27 747.301C411.734 747.835 411.32 748.479 411.057 749.187C410.795 749.896 410.689 750.653 410.749 751.406V764.163H404.031V747.585C404.031 745.618 404.031 744.381 401.66 744.718V740.503C405.104 739.717 410.128 739.717 410.523 743.931C411.068 742.636 412.012 741.546 413.219 740.818C414.427 740.091 415.835 739.764 417.241 739.885V739.885Z" fill="#473D3B"/>
<path d="M432.424 764.5C430.315 764.655 428.23 763.975 426.623 762.606C425.016 761.238 424.017 759.293 423.844 757.194C423.844 751.575 427.795 748.708 432.989 748.708C435.178 748.628 437.347 749.153 439.255 750.226V748.596C439.255 745.73 435.755 745.224 433.61 745.224C431.267 745.096 428.932 745.58 426.836 746.629L425.932 741.796C428.727 740.589 431.75 739.995 434.795 740.054C440.836 740.054 446.086 742.021 446.086 748.821V757.251C446.086 759.274 446.086 760.454 448.287 760.285V764.107C444.731 764.894 440.836 764.669 440.836 760.51C439.939 761.882 438.679 762.981 437.195 763.685C435.711 764.39 434.06 764.672 432.424 764.5ZM439.142 754.441C437.663 753.546 435.962 753.078 434.231 753.092C432.086 753.092 430.336 754.441 430.562 756.745C430.66 757.501 431.052 758.189 431.653 758.661C432.255 759.134 433.018 759.353 433.779 759.274C436.037 759.274 438.86 758.15 439.142 755.677V754.441Z" fill="#473D3B"/>
<path d="M483.795 764.107V750.675C483.795 747.528 482.327 745.674 479.957 745.674C479.333 745.708 478.722 745.869 478.163 746.144C477.603 746.42 477.105 746.806 476.699 747.279C476.292 747.751 475.987 748.301 475.799 748.894C475.612 749.488 475.548 750.113 475.61 750.732V764.275H469.005V750.675C469.005 747.472 467.424 745.617 464.94 745.617C464.288 745.639 463.646 745.79 463.054 746.064C462.461 746.338 461.931 746.728 461.493 747.211C461.056 747.693 460.72 748.259 460.508 748.873C460.295 749.488 460.209 750.139 460.255 750.788V764.219H453.481V747.865C453.481 745.617 453.481 744.831 451.223 744.831V740.672C454.327 739.773 459.747 739.267 459.747 743.931C460.535 742.669 461.659 741.648 462.994 740.984C464.33 740.319 465.824 740.036 467.311 740.166C468.834 739.936 470.389 740.242 471.708 741.032C473.028 741.823 474.028 743.047 474.537 744.493C475.368 743.104 476.564 741.966 477.997 741.203C479.429 740.441 481.044 740.082 482.666 740.166C489.384 740.166 490.964 744.887 490.795 750.619V764.219L483.795 764.107Z" fill="#473D3B"/>
<path d="M503.78 764.5C501.671 764.655 499.585 763.975 497.978 762.606C496.371 761.238 495.372 759.292 495.199 757.194C495.199 751.574 499.094 748.708 504.344 748.708C506.533 748.637 508.699 749.161 510.61 750.226V748.596C510.61 745.73 507.11 745.224 504.965 745.224C502.605 745.101 500.253 745.585 498.135 746.629L497.288 741.796C500.081 740.584 503.105 739.989 506.151 740.054C512.191 740.054 517.441 742.021 517.441 748.821V757.25C517.441 759.274 517.441 760.454 519.643 760.285V764.107C516.086 764.893 512.135 764.669 512.135 760.51C511.247 761.878 509.997 762.974 508.523 763.679C507.048 764.383 505.407 764.667 503.78 764.5V764.5ZM510.441 754.44C508.985 753.539 507.301 753.07 505.586 753.092C503.441 753.092 501.635 754.44 501.917 756.744C502.016 757.501 502.408 758.188 503.009 758.661C503.61 759.133 504.373 759.353 505.135 759.273C507.393 759.273 510.215 758.15 510.441 755.677V754.44Z" fill="#473D3B"/>
<path d="M542.395 741.402L532.121 758.262H542.395V764.163H522.242V763.376L532.629 746.517H522.976V740.897H542.395V741.402Z" fill="#473D3B"/>
<path d="M554.307 764.5C552.198 764.655 550.113 763.975 548.506 762.606C546.898 761.238 545.9 759.293 545.727 757.194C545.727 751.575 549.678 748.708 554.872 748.708C557.061 748.628 559.23 749.153 561.138 750.226V748.596C561.138 745.73 557.638 745.224 555.493 745.224C553.15 745.096 550.815 745.58 548.718 746.629L547.815 741.796C550.61 740.589 553.633 739.995 556.678 740.054C562.775 740.054 567.969 742.021 567.969 748.821V757.251C567.969 759.274 567.969 760.454 570.17 760.285V764.107C566.614 764.894 562.719 764.669 562.719 760.51C561.827 761.887 560.568 762.99 559.082 763.694C557.597 764.399 555.943 764.678 554.307 764.5V764.5ZM561.025 754.441C559.546 753.546 557.845 753.078 556.114 753.092C553.968 753.092 552.219 754.441 552.444 756.745C552.556 757.495 552.952 758.174 553.55 758.644C554.148 759.114 554.903 759.339 555.662 759.274C557.92 759.274 560.743 758.15 561.025 755.677V754.441Z" fill="#473D3B"/>
<path d="M591.565 764.107V750.675C591.645 750.047 591.59 749.409 591.402 748.803C591.214 748.198 590.899 747.64 590.476 747.166C590.054 746.692 589.534 746.314 588.953 746.056C588.371 745.799 587.741 745.668 587.105 745.674C586.431 745.657 585.761 745.78 585.137 746.032C584.512 746.285 583.947 746.663 583.476 747.143C583.004 747.622 582.637 748.194 582.397 748.821C582.157 749.448 582.05 750.117 582.081 750.788V764.275H575.25V747.865C575.25 745.505 575.25 744.774 572.992 744.774V740.56C576.153 740.054 581.629 739.492 581.629 743.707C582.436 742.483 583.558 741.497 584.88 740.854C586.201 740.212 587.672 739.935 589.137 740.054C595.799 740.054 598.452 744.662 598.452 750.507V764.107H591.565Z" fill="#473D3B"/>
<path d="M608.104 729.938C609.152 729.938 610.157 730.353 610.898 731.09C611.639 731.828 612.055 732.829 612.055 733.872C612.055 734.915 611.639 735.916 610.898 736.654C610.157 737.391 609.152 737.806 608.104 737.806C607.564 737.837 607.023 737.757 606.516 737.569C606.01 737.381 605.548 737.09 605.16 736.715C604.773 736.339 604.468 735.888 604.265 735.389C604.062 734.89 603.966 734.354 603.983 733.816C603.964 733.282 604.06 732.751 604.264 732.257C604.468 731.763 604.775 731.318 605.165 730.952C605.554 730.585 606.018 730.305 606.525 730.13C607.031 729.956 607.57 729.89 608.104 729.938V729.938ZM611.434 764.107H604.491V740.897H611.378L611.434 764.107Z" fill="#473D3B"/>
</g>
<path d="M484.956 798.5C484.284 798.5 483.756 797.972 483.756 797.3V782.444L480.684 783.404C480.564 783.452 480.444 783.476 480.324 783.476C479.82 783.476 479.34 783.14 479.172 782.636C478.98 781.988 479.34 781.316 479.964 781.124L484.596 779.684C484.956 779.564 485.364 779.636 485.676 779.852C485.964 780.068 486.156 780.428 486.156 780.812V797.3C486.156 797.972 485.628 798.5 484.956 798.5ZM499.861 798.596C499.213 798.596 498.661 798.044 498.661 797.396V794.132H489.277C488.821 794.132 488.389 793.844 488.197 793.436C487.981 793.004 488.077 792.5 488.365 792.14L498.973 779.972C499.285 779.588 499.813 779.468 500.293 779.636C500.749 779.804 501.061 780.26 501.061 780.764V791.732H502.861C503.509 791.732 504.061 792.26 504.061 792.932C504.061 793.58 503.509 794.132 502.861 794.132H501.061V797.396C501.061 798.044 500.533 798.596 499.861 798.596ZM491.917 791.732H498.661V783.956L491.917 791.732ZM517.767 798.596C517.119 798.596 516.567 798.044 516.567 797.396V794.132H507.183C506.727 794.132 506.295 793.844 506.103 793.436C505.887 793.004 505.983 792.5 506.271 792.14L516.879 779.972C517.191 779.588 517.719 779.468 518.199 779.636C518.655 779.804 518.967 780.26 518.967 780.764V791.732H520.767C521.415 791.732 521.967 792.26 521.967 792.932C521.967 793.58 521.415 794.132 520.767 794.132H518.967V797.396C518.967 798.044 518.439 798.596 517.767 798.596ZM509.823 791.732H516.567V783.956L509.823 791.732ZM535.674 798.596C535.026 798.596 534.474 798.044 534.474 797.396V794.132H525.09C524.634 794.132 524.202 793.844 524.01 793.436C523.794 793.004 523.89 792.5 524.178 792.14L534.786 779.972C535.098 779.588 535.626 779.468 536.106 779.636C536.562 779.804 536.874 780.26 536.874 780.764V791.732H538.674C539.322 791.732 539.874 792.26 539.874 792.932C539.874 793.58 539.322 794.132 538.674 794.132H536.874V797.396C536.874 798.044 536.346 798.596 535.674 798.596ZM527.73 791.732H534.474V783.956L527.73 791.732Z" fill="#F7B13F"/>
</g>
<path d="M148 832H149.167M167.833 832H169M151.033 824.533L151.85 825.35M165.967 824.533L165.15 825.35M153.833 832C153.833 830.762 154.325 829.575 155.2 828.7C156.075 827.825 157.262 827.333 158.5 827.333C159.738 827.333 160.925 827.825 161.8 828.7C162.675 829.575 163.167 830.762 163.167 832M148 836.667H169M152.667 840.167H158.5M163.167 840.167H164.333M158.5 822.667V821.5" stroke="#3F99EC" stroke-width="3" stroke-linecap="round" stroke-linejoin="round"/>
<path d="M204.664 828.843H206.997M205.831 827.676V830.009M196.497 819.509H196.956C195.457 820.902 194.494 822.776 194.233 824.805C193.973 826.834 194.432 828.891 195.53 830.617C196.628 832.343 198.297 833.63 200.246 834.253C202.194 834.877 204.3 834.798 206.196 834.03C205.466 835.785 204.274 837.309 202.746 838.44C201.218 839.571 199.412 840.266 197.521 840.45C195.629 840.635 193.722 840.303 192.005 839.489C190.287 838.675 188.822 837.41 187.767 835.829C186.712 834.248 186.105 832.411 186.012 830.512C185.92 828.614 186.344 826.726 187.24 825.049C188.137 823.373 189.471 821.971 191.101 820.994C192.732 820.017 194.597 819.5 196.497 819.5V819.509ZM202.331 820.676C202.331 821.295 202.577 821.888 203.014 822.326C203.452 822.764 204.045 823.009 204.664 823.009C204.045 823.009 203.452 823.255 203.014 823.693C202.577 824.13 202.331 824.724 202.331 825.343C202.331 824.724 202.085 824.13 201.647 823.693C201.21 823.255 200.616 823.009 199.997 823.009C200.616 823.009 201.21 822.764 201.647 822.326C202.085 821.888 202.331 821.295 202.331 820.676Z" stroke="#3F99EC" stroke-width="3" stroke-linecap="round" stroke-linejoin="round"/>
<path d="M271.69 834.666C274.267 834.666 276.357 832.577 276.357 830C276.357 827.422 274.267 825.333 271.69 825.333C269.113 825.333 267.023 827.422 267.023 830C267.023 832.577 269.113 834.666 271.69 834.666Z" stroke="#3F99EC" stroke-width="3" stroke-linecap="round" stroke-linejoin="round"/>
<path d="M261.191 830H262.358M271.691 819.5V820.667M281.025 830H282.191M271.691 839.333V840.5M264.225 822.533L265.041 823.35M279.158 822.533L278.341 823.35M278.341 836.65L279.158 837.467M265.041 836.65L264.225 837.467" stroke="#3F99EC" stroke-width="3" stroke-linecap="round" stroke-linejoin="round"/>
<path d="M308.522 835.499C311.099 835.499 313.189 833.41 313.189 830.833C313.189 828.255 311.099 826.166 308.522 826.166C305.945 826.166 303.855 828.255 303.855 830.833C303.855 833.41 305.945 835.499 308.522 835.499Z" stroke="#3F99EC" stroke-width="3" stroke-linecap="round" stroke-linejoin="round"/>
<path d="M299.191 830.833H299.203M308.525 821.5V821.512M317.858 830.833H317.87M308.525 840.167V840.178M301.886 824.195L301.875 824.183M315.186 824.195L315.175 824.183M315.175 837.483L315.186 837.495M301.875 837.483L301.886 837.495" stroke="#3F99EC" stroke-width="3" stroke-linecap="round" stroke-linejoin="round"/>
<path d="M234.494 819.509H234.952C233.453 820.902 232.49 822.776 232.229 824.805C231.969 826.834 232.428 828.891 233.526 830.617C234.624 832.343 236.293 833.63 238.242 834.253C240.19 834.877 242.296 834.798 244.192 834.03C243.463 835.785 242.27 837.309 240.742 838.44C239.215 839.571 237.408 840.266 235.517 840.45C233.625 840.635 231.718 840.303 230.001 839.489C228.283 838.675 226.818 837.41 225.763 835.829C224.708 834.248 224.101 832.411 224.009 830.512C223.916 828.614 224.34 826.726 225.236 825.049C226.133 823.373 227.467 821.971 229.097 820.994C230.728 820.017 232.593 819.5 234.494 819.5V819.509Z" stroke="#3F99EC" stroke-width="3" stroke-linecap="round" stroke-linejoin="round"/>
<path fill-rule="evenodd" clip-rule="evenodd" d="M163.711 330.387C163.711 330.612 163.827 330.822 164.019 330.94L168.608 333.789V333.789C168.819 333.92 169.085 333.92 169.295 333.789V333.789L173.88 330.944C174.071 330.825 174.188 330.615 174.188 330.39V330.39C174.188 329.88 173.627 329.568 173.193 329.837L169.295 332.256C169.085 332.387 168.819 332.387 168.608 332.256L164.706 329.834C164.272 329.564 163.711 329.876 163.711 330.387V330.387ZM161.407 329.319C161.841 329.589 162.402 329.277 162.402 328.766V328.766C162.402 328.541 162.285 328.331 162.094 328.213L158.159 325.77C157.725 325.501 157.164 325.813 157.164 326.324V326.324C157.164 326.549 157.281 326.758 157.472 326.877L161.407 329.319ZM154.86 325.256C155.294 325.525 155.855 325.213 155.855 324.702V324.702C155.855 324.477 155.739 324.268 155.547 324.149L150.862 321.241C150.556 321.051 150.155 321.145 149.965 321.451V321.451C149.776 321.757 149.869 322.158 150.175 322.348L154.86 325.256ZM175.805 328.216C175.613 328.334 175.497 328.544 175.497 328.769V328.769C175.497 329.28 176.058 329.592 176.492 329.322L180.426 326.88C180.618 326.761 180.734 326.552 180.734 326.327V326.327C180.734 325.816 180.173 325.504 179.739 325.773L175.805 328.216ZM182.351 324.152C182.16 324.271 182.044 324.48 182.044 324.706V324.706C182.044 325.216 182.605 325.528 183.038 325.259L187.728 322.348C188.034 322.158 188.128 321.757 187.938 321.451V321.451C187.749 321.145 187.347 321.051 187.042 321.241L182.351 324.152Z" fill="#E0A14F"/>
<path d="M153.238 310.975L167.181 301.68C168.257 300.963 169.654 300.95 170.743 301.646L185.319 310.975" stroke="#473D3B" stroke-width="1.63094"/>
<path d="M149.965 318.177L168.951 329.962L187.938 318.177" stroke="#E0A14F" stroke-width="2.27954"/>
<path fill-rule="evenodd" clip-rule="evenodd" d="M168.569 346.202C168.398 346.079 168.297 345.881 168.297 345.671V323.165C168.297 322.803 168.59 322.51 168.952 322.51V322.51C169.313 322.51 169.606 322.803 169.606 323.165V345.671C169.606 345.881 169.505 346.079 169.334 346.202V346.202C169.106 346.366 168.798 346.366 168.569 346.202V346.202Z" fill="#473D3B"/>
<path d="M148 308.285V334.548C148 334.908 148.292 335.2 148.651 335.2H149.968C150.327 335.2 150.619 334.908 150.619 334.548V313.514C150.619 312.991 151.203 312.681 151.636 312.975L168.585 324.476C168.806 324.626 169.096 324.626 169.316 324.476L186.266 312.975C186.698 312.681 187.283 312.991 187.283 313.514V334.548C187.283 334.908 187.574 335.2 187.934 335.2H189.25C189.61 335.2 189.901 334.908 189.901 334.548V308.285C189.901 307.761 189.313 307.451 188.881 307.749L169.32 321.197C169.097 321.35 168.804 321.35 168.582 321.197L149.02 307.749C148.588 307.451 148 307.761 148 308.285Z" fill="#473D3B"/>
<path d="M210.19 307.653V319.244H208.289V311.305L204.753 319.244H203.435L199.883 311.305V319.244H197.981V307.653H200.033L204.102 316.743L208.155 307.653H210.19ZM221.012 310.055V319.244H219.11V318.16C218.81 318.538 218.415 318.839 217.926 319.061C217.448 319.272 216.936 319.378 216.392 319.378C215.669 319.378 215.018 319.228 214.44 318.927C213.873 318.627 213.423 318.183 213.089 317.593C212.767 317.004 212.606 316.292 212.606 315.458V310.055H214.49V315.175C214.49 315.998 214.696 316.631 215.107 317.076C215.519 317.51 216.08 317.727 216.792 317.727C217.504 317.727 218.065 317.51 218.476 317.076C218.899 316.631 219.11 315.998 219.11 315.175V310.055H221.012ZM226.856 319.394C226.133 319.394 225.483 319.267 224.905 319.011C224.337 318.744 223.887 318.388 223.554 317.943C223.22 317.488 223.042 316.982 223.02 316.426H224.988C225.021 316.815 225.205 317.143 225.538 317.41C225.883 317.665 226.311 317.793 226.823 317.793C227.356 317.793 227.768 317.693 228.057 317.493C228.357 317.282 228.507 317.015 228.507 316.693C228.507 316.348 228.34 316.092 228.007 315.925C227.684 315.759 227.167 315.575 226.456 315.375C225.766 315.186 225.205 315.002 224.771 314.825C224.337 314.647 223.959 314.374 223.637 314.007C223.326 313.64 223.17 313.157 223.17 312.556C223.17 312.067 223.315 311.622 223.604 311.222C223.893 310.811 224.304 310.488 224.838 310.255C225.383 310.021 226.005 309.904 226.706 309.904C227.751 309.904 228.591 310.171 229.224 310.705C229.869 311.228 230.214 311.945 230.258 312.857H228.357C228.324 312.445 228.157 312.117 227.857 311.873C227.556 311.628 227.151 311.506 226.639 311.506C226.139 311.506 225.755 311.6 225.488 311.789C225.221 311.978 225.088 312.228 225.088 312.54C225.088 312.784 225.177 312.99 225.355 313.157C225.533 313.324 225.75 313.457 226.005 313.557C226.261 313.646 226.639 313.763 227.139 313.907C227.807 314.085 228.351 314.269 228.774 314.458C229.208 314.636 229.58 314.902 229.891 315.258C230.203 315.614 230.364 316.087 230.375 316.676C230.375 317.198 230.231 317.665 229.941 318.077C229.652 318.488 229.241 318.811 228.707 319.044C228.185 319.278 227.568 319.394 226.856 319.394ZM234.331 306.902V319.244H232.43V306.902H234.331ZM237.795 308.837C237.45 308.837 237.161 308.72 236.927 308.487C236.694 308.253 236.577 307.964 236.577 307.619C236.577 307.275 236.694 306.986 236.927 306.752C237.161 306.519 237.45 306.402 237.795 306.402C238.128 306.402 238.412 306.519 238.645 306.752C238.879 306.986 238.995 307.275 238.995 307.619C238.995 307.964 238.879 308.253 238.645 308.487C238.412 308.72 238.128 308.837 237.795 308.837ZM238.729 310.055V319.244H236.827V310.055H238.729ZM252.349 309.904C253.072 309.904 253.717 310.055 254.284 310.355C254.862 310.655 255.313 311.1 255.635 311.689C255.969 312.278 256.135 312.99 256.135 313.824V319.244H254.251V314.107C254.251 313.285 254.045 312.656 253.634 312.223C253.222 311.778 252.661 311.556 251.949 311.556C251.237 311.556 250.67 311.778 250.248 312.223C249.836 312.656 249.631 313.285 249.631 314.107V319.244H247.746V314.107C247.746 313.285 247.54 312.656 247.129 312.223C246.718 311.778 246.156 311.556 245.444 311.556C244.733 311.556 244.166 311.778 243.743 312.223C243.332 312.656 243.126 313.285 243.126 314.107V319.244H241.225V310.055H243.126V311.105C243.437 310.727 243.832 310.433 244.31 310.221C244.788 310.01 245.3 309.904 245.845 309.904C246.579 309.904 247.235 310.06 247.813 310.371C248.391 310.683 248.836 311.133 249.147 311.722C249.425 311.166 249.859 310.727 250.448 310.405C251.037 310.071 251.671 309.904 252.349 309.904ZM257.921 314.608C257.921 313.685 258.11 312.868 258.488 312.156C258.877 311.444 259.4 310.894 260.056 310.505C260.723 310.105 261.457 309.904 262.257 309.904C262.98 309.904 263.608 310.049 264.142 310.338C264.687 310.616 265.121 310.966 265.443 311.389V310.055H267.361V319.244H265.443V317.877C265.121 318.31 264.681 318.672 264.125 318.961C263.569 319.25 262.936 319.394 262.224 319.394C261.435 319.394 260.712 319.194 260.056 318.794C259.4 318.383 258.877 317.816 258.488 317.093C258.11 316.359 257.921 315.531 257.921 314.608ZM265.443 314.641C265.443 314.007 265.31 313.457 265.043 312.99C264.787 312.523 264.448 312.167 264.025 311.923C263.603 311.678 263.147 311.556 262.658 311.556C262.168 311.556 261.713 311.678 261.29 311.923C260.868 312.156 260.523 312.506 260.256 312.973C260 313.429 259.872 313.974 259.872 314.608C259.872 315.242 260 315.798 260.256 316.276C260.523 316.754 260.868 317.121 261.29 317.376C261.724 317.621 262.18 317.743 262.658 317.743C263.147 317.743 263.603 317.621 264.025 317.376C264.448 317.132 264.787 316.776 265.043 316.309C265.31 315.831 265.443 315.275 265.443 314.641ZM274.495 309.904C275.218 309.904 275.863 310.055 276.43 310.355C277.008 310.655 277.458 311.1 277.781 311.689C278.103 312.278 278.264 312.99 278.264 313.824V319.244H276.38V314.107C276.38 313.285 276.174 312.656 275.763 312.223C275.351 311.778 274.79 311.556 274.078 311.556C273.366 311.556 272.799 311.778 272.377 312.223C271.965 312.656 271.76 313.285 271.76 314.107V319.244H269.858V310.055H271.76V311.105C272.071 310.727 272.466 310.433 272.944 310.221C273.433 310.01 273.95 309.904 274.495 309.904ZM281.657 308.837C281.312 308.837 281.023 308.72 280.79 308.487C280.556 308.253 280.439 307.964 280.439 307.619C280.439 307.275 280.556 306.986 280.79 306.752C281.023 306.519 281.312 306.402 281.657 306.402C281.991 306.402 282.274 306.519 282.508 306.752C282.741 306.986 282.858 307.275 282.858 307.619C282.858 307.964 282.741 308.253 282.508 308.487C282.274 308.72 281.991 308.837 281.657 308.837ZM282.591 310.055V319.244H280.69V310.055H282.591Z" fill="#473D3B"/>
<path d="M200.617 321.435V333.143H197.765V321.435H200.617ZM202.116 328.473C202.116 327.517 202.294 326.677 202.65 325.954C203.017 325.232 203.512 324.676 204.134 324.287C204.757 323.897 205.452 323.703 206.219 323.703C206.831 323.703 207.387 323.831 207.887 324.086C208.399 324.342 208.799 324.687 209.088 325.12V320.801H211.94V333.143H209.088V331.809C208.821 332.253 208.437 332.609 207.937 332.876C207.448 333.143 206.875 333.276 206.219 333.276C205.452 333.276 204.757 333.082 204.134 332.693C203.512 332.292 203.017 331.731 202.65 331.008C202.294 330.274 202.116 329.429 202.116 328.473ZM209.088 328.49C209.088 327.778 208.888 327.216 208.487 326.805C208.098 326.394 207.62 326.188 207.053 326.188C206.486 326.188 206.002 326.394 205.602 326.805C205.213 327.205 205.018 327.761 205.018 328.473C205.018 329.184 205.213 329.752 205.602 330.174C206.002 330.585 206.486 330.791 207.053 330.791C207.62 330.791 208.098 330.585 208.487 330.174C208.888 329.763 209.088 329.201 209.088 328.49ZM222.776 328.339C222.776 328.606 222.759 328.884 222.726 329.173H216.272C216.316 329.752 216.499 330.196 216.822 330.508C217.155 330.808 217.561 330.958 218.039 330.958C218.751 330.958 219.246 330.658 219.524 330.057H222.559C222.404 330.669 222.12 331.219 221.709 331.708C221.308 332.198 220.802 332.581 220.191 332.859C219.579 333.137 218.896 333.276 218.139 333.276C217.228 333.276 216.416 333.082 215.704 332.693C214.993 332.303 214.437 331.747 214.037 331.025C213.636 330.302 213.436 329.457 213.436 328.49C213.436 327.522 213.631 326.677 214.02 325.954C214.42 325.232 214.976 324.676 215.688 324.287C216.399 323.897 217.217 323.703 218.139 323.703C219.04 323.703 219.841 323.892 220.541 324.27C221.242 324.648 221.787 325.187 222.176 325.888C222.576 326.588 222.776 327.405 222.776 328.339ZM219.857 327.589C219.857 327.1 219.691 326.71 219.357 326.421C219.023 326.132 218.606 325.988 218.106 325.988C217.628 325.988 217.222 326.127 216.889 326.405C216.566 326.683 216.366 327.077 216.288 327.589H219.857ZM223.714 328.473C223.714 327.517 223.892 326.677 224.247 325.954C224.614 325.232 225.109 324.676 225.732 324.287C226.354 323.897 227.049 323.703 227.817 323.703C228.473 323.703 229.045 323.836 229.534 324.103C230.035 324.37 230.418 324.72 230.685 325.154V323.836H233.537V333.143H230.685V331.825C230.407 332.259 230.018 332.609 229.518 332.876C229.028 333.143 228.456 333.276 227.8 333.276C227.044 333.276 226.354 333.082 225.732 332.693C225.109 332.292 224.614 331.731 224.247 331.008C223.892 330.274 223.714 329.429 223.714 328.473ZM230.685 328.49C230.685 327.778 230.485 327.216 230.085 326.805C229.696 326.394 229.218 326.188 228.65 326.188C228.083 326.188 227.6 326.394 227.199 326.805C226.81 327.205 226.616 327.761 226.616 328.473C226.616 329.184 226.81 329.752 227.199 330.174C227.6 330.585 228.083 330.791 228.65 330.791C229.218 330.791 229.696 330.585 230.085 330.174C230.485 329.763 230.685 329.201 230.685 328.49ZM238.453 320.801V333.143H235.601V320.801H238.453Z" fill="#E0A14F"/>
<rect x="686" y="793.5" width="19.982" height="19.967" rx="5" fill="#C8DEF3"/>
<rect x="721.965" y="809.473" width="163.834" height="0.99835" fill="#E7DDC7"/>
<rect x="686" y="820.5" width="19.982" height="19.967" rx="5" fill="#C8DEF3"/>
<rect x="721.965" y="836.474" width="163.834" height="0.99835" fill="#E7DDC7"/>
<rect x="686" y="847.5" width="19.982" height="19.967" rx="5" fill="#C8DEF3"/>
<rect x="721.965" y="863.474" width="163.834" height="0.99835" fill="#E7DDC7"/>
<rect x="686" y="874.5" width="19.982" height="19.967" rx="5" fill="#C8DEF3"/>
<rect x="721.965" y="890.474" width="163.834" height="0.99835" fill="#E7DDC7"/>
<path d="M794.837 280.078C798.922 275.505 806.078 275.505 810.163 280.078V280.078C813.416 283.718 818.781 284.568 822.999 282.111V282.111C828.298 279.024 835.103 281.235 837.576 286.847V286.847C839.544 291.315 844.384 293.781 849.155 292.747V292.747C855.148 291.449 860.937 295.655 861.555 301.756V301.756C862.046 306.613 865.887 310.454 870.744 310.945V310.945C876.845 311.563 881.051 317.352 879.753 323.345V323.345C878.719 328.116 881.185 332.956 885.653 334.924V334.924C891.265 337.397 893.476 344.202 890.389 349.501V349.501C887.932 353.719 888.782 359.084 892.422 362.337V362.337C896.995 366.422 896.995 373.578 892.422 377.663V377.663C888.782 380.916 887.932 386.281 890.389 390.499V390.499C893.476 395.798 891.265 402.603 885.653 405.076V405.076C881.185 407.044 878.719 411.884 879.753 416.655V416.655C881.051 422.648 876.845 428.437 870.744 429.055V429.055C865.887 429.546 862.046 433.387 861.555 438.244V438.244C860.937 444.345 855.148 448.551 849.155 447.253V447.253C844.384 446.219 839.544 448.685 837.576 453.153V453.153C835.103 458.765 828.298 460.976 822.999 457.889V457.889C818.781 455.432 813.416 456.282 810.163 459.922V459.922C806.078 464.495 798.922 464.495 794.837 459.922V459.922C791.584 456.282 786.219 455.432 782.001 457.889V457.889C776.702 460.976 769.897 458.765 767.424 453.153V453.153C765.456 448.685 760.616 446.219 755.845 447.253V447.253C749.852 448.551 744.063 444.345 743.445 438.244V438.244C742.954 433.387 739.113 429.546 734.256 429.055V429.055C728.155 428.437 723.949 422.648 725.247 416.655V416.655C726.281 411.884 723.815 407.044 719.347 405.076V405.076C713.735 402.603 711.524 395.798 714.611 390.499V390.499C717.068 386.281 716.218 380.916 712.578 377.663V377.663C708.005 373.578 708.005 366.422 712.578 362.337V362.337C716.218 359.084 717.068 353.719 714.611 349.501V349.501C711.524 344.202 713.735 337.397 719.347 334.924V334.924C723.815 332.956 726.281 328.116 725.247 323.345V323.345C723.949 317.352 728.155 311.563 734.256 310.945V310.945C739.113 310.454 742.954 306.613 743.445 301.756V301.756C744.063 295.655 749.852 291.449 755.845 292.747V292.747C760.616 293.781 765.456 291.315 767.424 286.847V286.847C769.897 281.235 776.702 279.024 782.001 282.111V282.111C786.219 284.568 791.584 283.718 794.837 280.078V280.078Z" fill="#EFA42B"/>
<path d="M764.487 387.5C763.719 387.5 763.335 387.196 763.335 386.588V386.396C763.335 386.044 763.559 385.644 764.007 385.196C764.487 384.748 764.951 384.236 765.399 383.66C765.879 383.084 766.119 382.46 766.119 381.788V362.684C766.119 361.98 765.943 361.436 765.591 361.052C765.239 360.636 764.839 360.364 764.391 360.236C763.975 360.108 763.591 359.932 763.239 359.708C762.887 359.452 762.711 359.132 762.711 358.748V358.508C762.711 357.932 763.191 357.42 764.151 356.972L771.735 353.708C772.951 353.26 773.911 353.212 774.615 353.564C775.351 353.884 775.719 354.396 775.719 355.1C775.719 355.516 775.543 356.108 775.191 356.876C774.839 357.644 774.663 358.54 774.663 359.564V381.788C774.663 382.46 774.903 383.084 775.383 383.66C775.895 384.236 776.391 384.748 776.871 385.196C777.351 385.644 777.591 386.044 777.591 386.396V386.588C777.591 387.196 777.207 387.5 776.439 387.5H764.487ZM795.563 387.98C791.179 387.98 787.499 386.396 784.523 383.228C781.547 380.028 780.059 375.82 780.059 370.604C780.059 365.26 781.451 360.988 784.235 357.788C787.051 354.556 790.811 352.94 795.515 352.94C799.931 352.94 803.627 354.588 806.603 357.884C809.579 361.18 811.067 365.436 811.067 370.652C811.067 375.868 809.563 380.06 806.555 383.228C803.547 386.396 799.883 387.98 795.563 387.98ZM792.923 382.172C794.075 383.9 795.387 384.764 796.859 384.764C798.331 384.764 799.483 383.916 800.315 382.22C801.179 380.492 801.611 377.948 801.611 374.588C801.611 371.74 801.323 368.94 800.747 366.188C800.203 363.436 799.355 361.1 798.203 359.18C797.083 357.26 795.787 356.3 794.315 356.3C792.779 356.3 791.579 357.244 790.715 359.132C789.883 360.988 789.467 363.74 789.467 367.388C789.467 370.268 789.755 373.02 790.331 375.644C790.907 378.268 791.771 380.444 792.923 382.172ZM842.026 377.372C842.57 376.956 843.13 376.892 843.706 377.18C844.314 377.436 844.602 377.948 844.57 378.716C844.442 380.956 843.306 383.052 841.162 385.004C839.05 386.924 836.33 387.884 833.002 387.884C828.938 387.884 825.594 386.588 822.97 383.996C820.346 381.404 818.682 378.156 817.978 374.252H814.906C814.17 374.252 813.802 373.964 813.802 373.388V372.188C813.802 371.932 813.898 371.724 814.09 371.564C814.314 371.404 814.586 371.324 814.906 371.324H817.642V370.316C817.642 369.708 817.658 369.26 817.69 368.972H814.906C814.17 368.972 813.802 368.716 813.802 368.204V366.908C813.802 366.364 814.17 366.092 814.906 366.092H818.074C818.842 362.188 820.602 359.084 823.354 356.78C826.106 354.476 829.306 353.324 832.954 353.324C836.218 353.324 838.97 353.916 841.21 355.1C843.45 356.284 844.57 357.916 844.57 359.996C844.57 360.924 844.234 361.756 843.562 362.492C842.922 363.228 842.042 363.596 840.922 363.596C839.898 363.596 839.034 363.372 838.33 362.924C837.658 362.444 837.114 361.868 836.698 361.196C836.282 360.492 835.866 359.804 835.45 359.132C835.066 358.46 834.522 357.9 833.818 357.452C833.114 356.972 832.266 356.732 831.274 356.732C829.738 356.732 828.474 357.596 827.482 359.324C826.522 361.02 826.042 363.276 826.042 366.092H837.37C838.106 366.092 838.474 366.364 838.474 366.908V368.204C838.474 368.716 838.106 368.972 837.37 368.972H826.186C826.218 369.612 826.33 370.396 826.522 371.324H835.882C836.202 371.324 836.474 371.404 836.698 371.564C836.922 371.724 837.034 371.932 837.034 372.188V373.388C837.034 373.964 836.65 374.252 835.882 374.252H827.338C828.074 376.172 829.05 377.628 830.266 378.62C831.514 379.612 832.906 380.108 834.442 380.108C837.226 380.108 839.754 379.196 842.026 377.372Z" fill="white"/>
<defs>
<linearGradient id="paint0_linear_260_2733" x1="590.5" y1="235.5" x2="585.5" y2="126.5" gradientUnits="userSpaceOnUse">
<stop stop-color="#C8DEF3"/>
<stop offset="1" stop-color="#C8DEF3" stop-opacity="0"/>
</linearGradient>
<clipPath id="clip0_260_2733">
<rect x="207" y="144.5" width="595" height="842" rx="41" fill="white"/>
</clipPath>
<clipPath id="clip1_260_2733">
<rect width="150" height="683" fill="white" transform="translate(430 -60.5)"/>
</clipPath>
<clipPath id="clip2_260_2733">
<rect width="231" height="68" fill="white" transform="translate(381 696.5)"/>
</clipPath>
</defs>
</svg>
