<svg width="58" height="58" viewBox="0 0 58 58" fill="none" xmlns="http://www.w3.org/2000/svg">
<path d="M22.6562 50.3875C34.1679 50.3875 43.5 41.0554 43.5 29.5437C43.5 18.0321 34.1679 8.7 22.6562 8.7C11.1446 8.7 1.8125 18.0321 1.8125 29.5437C1.8125 41.0554 11.1446 50.3875 22.6562 50.3875Z" stroke="#E8604C" stroke-width="2" stroke-miterlimit="10"/>
<path d="M22.6562 42.2312C29.6634 42.2312 35.3438 36.5509 35.3438 29.5437C35.3438 22.5366 29.6634 16.8562 22.6562 16.8562C15.6491 16.8562 9.96875 22.5366 9.96875 29.5437C9.96875 36.5509 15.6491 42.2312 22.6562 42.2312Z" stroke="#E8604C" stroke-width="2" stroke-miterlimit="10"/>
<path d="M22.6562 33.1687C24.6583 33.1687 26.2812 31.5458 26.2812 29.5437C26.2812 27.5417 24.6583 25.9187 22.6562 25.9187C20.6542 25.9187 19.0312 27.5417 19.0312 29.5437C19.0312 31.5458 20.6542 33.1687 22.6562 33.1687Z" stroke="#E8604C" stroke-width="2" stroke-miterlimit="10"/>
<path d="M22.156 28.7685C21.6778 29.0448 21.5141 29.6564 21.7904 30.1346C22.0666 30.6128 22.6783 30.7765 23.1565 30.5003L22.156 28.7685ZM52.2573 7.88015C52.4051 7.34801 52.0935 6.7968 51.5614 6.64899C51.0293 6.50117 50.478 6.81272 50.3302 7.34486L52.2573 7.88015ZM55.879 17.2637C56.4043 17.4341 56.9683 17.1464 57.1387 16.621C57.3091 16.0957 57.0214 15.5317 56.496 15.3613L55.879 17.2637ZM23.1565 30.5003L49.9815 15.0034L48.981 13.2716L22.156 28.7685L23.1565 30.5003ZM50.4448 14.4051L52.2573 7.88015L50.3302 7.34486L48.5177 13.8699L50.4448 14.4051ZM49.1727 15.0887L55.879 17.2637L56.496 15.3613L49.7898 13.1863L49.1727 15.0887Z" fill="#E8604C"/>
</svg>
