<svg width="58" height="58" viewBox="0 0 58 58" fill="none" xmlns="http://www.w3.org/2000/svg">
<path d="M49.0571 34.4176C42.0282 45.3587 29.0698 52.5951 29.0698 52.5951C29.0698 52.5951 16.5101 45.6206 9.36156 35.3438M7.15938 31.7188C5.49409 28.6557 4.59254 25.236 4.53125 21.75C4.53125 4.5675 25.375 4.53125 29 17.2188C32.625 4.53125 53.4688 4.53125 53.4688 20.8438C53.4251 24.304 52.6063 27.7104 51.0726 30.8125" stroke="#E8604C" stroke-width="2" stroke-miterlimit="10" stroke-linecap="round" stroke-linejoin="round"/>
<path d="M1.8125 31.7187H15.1888C15.2567 31.7187 15.3237 31.7033 15.3849 31.6738C15.446 31.6443 15.4998 31.6014 15.5422 31.5484L18.657 27.6515C18.7007 27.5964 18.7567 27.5522 18.8205 27.5224C18.8843 27.4927 18.9541 27.4782 19.0245 27.4801C19.0948 27.482 19.1638 27.5003 19.2258 27.5335C19.2879 27.5668 19.3413 27.614 19.382 27.6714L23.1574 32.9576C23.2014 33.0192 23.2601 33.0688 23.3282 33.1019C23.3963 33.1349 23.4716 33.1504 23.5472 33.1469C23.6228 33.1434 23.6963 33.121 23.7611 33.0817C23.8258 33.0425 23.8797 32.9877 23.9178 32.9222L29.4459 23.4438C29.4885 23.3709 29.5506 23.3113 29.6253 23.2719C29.7 23.2324 29.7842 23.2146 29.8684 23.2204C29.9527 23.2263 30.0336 23.2555 30.1021 23.3049C30.1706 23.3543 30.2239 23.4219 30.2561 23.5L35.8748 37.1381C35.9079 37.2186 35.9635 37.2879 36.0349 37.3377C36.1063 37.3875 36.1905 37.4156 36.2775 37.4188C36.3645 37.4219 36.4506 37.3999 36.5254 37.3555C36.6002 37.311 36.6607 37.2459 36.6995 37.168L39.7545 31.059C39.7923 30.9852 39.8496 30.9232 39.9203 30.8797C39.9909 30.8362 40.0721 30.813 40.155 30.8125H56.1875" stroke="#E8604C" stroke-width="2" stroke-miterlimit="10" stroke-linecap="round"/>
</svg>
