<svg width="58" height="58" viewBox="0 0 58 58" fill="none" xmlns="http://www.w3.org/2000/svg">
<g clip-path="url(#clip0_8:27)">
<path d="M27.0969 29.9969L56.1875 0.90625C56.1875 24.1969 41.6875 26.2812 30.8125 26.2812C30.8125 12.7781 37.2469 6.34375 43.5 3.35312V13.5938M43.4094 13.5938H54.1938M38.0625 19.0312H51.2031" stroke="#E8604C" stroke-width="2" stroke-miterlimit="10" stroke-linecap="round" stroke-linejoin="round"/>
<path d="M21.75 41.2344V38.0625C21.75 37.8221 21.8455 37.5916 22.0154 37.4217C22.1854 37.2517 22.4159 37.1562 22.6562 37.1562H23.5625C23.796 37.1358 24.0148 37.0338 24.1806 36.8681C24.3463 36.7023 24.4483 36.4835 24.4688 36.25V32.625C24.4688 32.3846 24.3733 32.1541 24.2033 31.9842C24.0334 31.8142 23.8029 31.7188 23.5625 31.7188H12.6875C12.4471 31.7188 12.2166 31.8142 12.0467 31.9842C11.8767 32.1541 11.7812 32.3846 11.7812 32.625V36.25C11.7812 36.4904 11.8767 36.7209 12.0467 36.8908C12.2166 37.0608 12.4471 37.1562 12.6875 37.1562H13.5938C13.8341 37.1562 14.0646 37.2517 14.2346 37.4217C14.4045 37.5916 14.5 37.8221 14.5 38.0625V41.2344C11.2221 42.0367 8.26043 43.8044 5.99842 46.3088C3.73641 48.8132 2.27819 51.9388 1.8125 55.2812V57.0938H34.4375V55.2812C33.9718 51.9388 32.5136 48.8132 30.2516 46.3088C27.9896 43.8044 25.0279 42.0367 21.75 41.2344Z" stroke="#E8604C" stroke-width="2" stroke-miterlimit="10" stroke-linejoin="round"/>
</g>
<defs>
<clipPath id="clip0_8:27">
<rect width="58" height="58" fill="white"/>
</clipPath>
</defs>
</svg>
