<svg width="58" height="58" viewBox="0 0 58 58" fill="none" xmlns="http://www.w3.org/2000/svg">
<path d="M44 40.6667V10.6667C44 8.89856 43.2976 7.20286 42.0474 5.95262C40.7971 4.70238 39.1014 4 37.3333 4H10C13.6667 4 15.6667 7 15.6667 10.6667V47.3333C15.6667 49.1014 16.369 50.7971 17.6193 52.0474C18.8695 53.2976 20.5652 54 22.3333 54" stroke="#E8604C" stroke-width="2" stroke-linecap="round" stroke-linejoin="round"/>
<path d="M10 4C6.33333 4 4 7 4 10.6667H15.6667M47.3333 40.6667H22.3333C24.1014 40.6667 25.7971 41.369 27.0474 42.6193C28.2976 43.8695 29 45.5652 29 47.3333C29 49.1014 28.2976 50.7971 27.0474 52.0474C25.7971 53.2976 24.1014 54 22.3333 54H47.3333C49.1014 54 50.7971 53.2976 52.0474 52.0474C53.2976 50.7971 54 49.1014 54 47.3333C54 45.5652 53.2976 43.8695 52.0474 42.6193C50.7971 41.369 49.1014 40.6667 47.3333 40.6667Z" stroke="#E8604C" stroke-width="2" stroke-linecap="round" stroke-linejoin="round"/>
<path d="M24 31H36M24 14H36H24ZM24 22.5H36H24Z" stroke="#E8604C" stroke-width="2" stroke-linecap="round" stroke-linejoin="round"/>
</svg>
